<mxfile host="app.diagrams.net" modified="2023-10-10T00:35:41.596Z" agent="Mozilla/5.0 (Windows NT 10.0; Win64; x64) AppleWebKit/537.36 (KHTML, like Gecko) Chrome/117.0.0.0 Safari/537.36" version="21.6.5" etag="I3v8ftulJZyOdDNKCqjY" type="github">
  <diagram name="ページ1" id="sXL3V5XuGCwIoR5Zoo95">
    <mxGraphModel>
      <root>
        <mxCell id="0" />
        <mxCell id="1" parent="0" />
      </root>
    </mxGraphModel>
  </diagram>
</mxfile>
